<svg width="24" height="24" viewBox="0 0 24 24" fill="none" xmlns="http://www.w3.org/2000/svg">
<g clip-path="url(#clip0_77_81)">
<path fill-rule="evenodd" clip-rule="evenodd" d="M19.0711 19.0711C15.1659 22.9763 8.83422 22.9763 4.92898 19.0711C1.02373 15.1658 1.02373 8.83418 4.92898 4.92893C8.83422 1.02369 15.1659 1.02369 19.0711 4.92893C22.9764 8.83418 22.9764 15.1658 19.0711 19.0711ZM13.6667 13.6667L17 13.6667C17.9205 13.6667 18.6667 12.9205 18.6667 12C18.6667 11.0795 17.9205 10.3333 17 10.3333L13.6667 10.3333L13.6667 7C13.6667 6.07953 12.9205 5.33333 12 5.33333C11.0796 5.33333 10.3334 6.07953 10.3334 7L10.3334 10.3333H7.00005C6.07957 10.3333 5.33338 11.0795 5.33338 12C5.33338 12.9205 6.07957 13.6667 7.00005 13.6667H10.3334L10.3334 17C10.3334 17.9205 11.0796 18.6667 12 18.6667C12.9205 18.6667 13.6667 17.9205 13.6667 17L13.6667 13.6667Z" fill="#898989"/>
</g>
<defs>
<clipPath id="clip0_77_81">
<rect width="24" height="24" fill="white"/>
</clipPath>
</defs>
</svg>
