<svg width="17" height="20" viewBox="0 0 17 20" fill="none" xmlns="http://www.w3.org/2000/svg">
<rect x="1.1" y="2.18667" width="13.8879" height="16.7133" rx="3.9" fill="#ECFFF9" stroke="#2E2C34" stroke-width="2.2"/>
<rect x="3.84618" y="2.30772" width="8.35163" height="0.879119" rx="0.43956" fill="#ECFFF9" stroke="#2E2C34" stroke-width="0.879119"/>
<path fill-rule="evenodd" clip-rule="evenodd" d="M11.7339 8.94604L9.43976 6.59572L9.9463 6.07677C10.2627 5.75181 10.678 5.58975 11.0934 5.58975C11.5087 5.58975 11.9233 5.75181 12.2404 6.07677C12.5576 6.40173 12.7158 6.82641 12.7158 7.25193C12.7158 7.67745 12.5576 8.10296 12.2404 8.42709L11.7339 8.94604ZM11.1651 9.52876L6.50428 14.3037L3.82619 15.2183C3.74363 15.2465 3.65437 15.2465 3.57181 15.2183C3.36108 15.1463 3.2472 14.913 3.31744 14.6971L4.21014 11.9534L8.87097 7.17844L11.1651 9.52876Z" fill="#2E2C34"/>
<ellipse cx="8.02194" cy="1.15384" rx="1.86813" ry="1.15384" fill="#2E2C34"/>
</svg>
